<svg width="24" height="25" viewBox="0 0 24 25" fill="none" xmlns="http://www.w3.org/2000/svg">
<path fill-rule="evenodd" clip-rule="evenodd" d="M11.6116 3.80203C11.8551 3.73273 12.1119 3.73267 12.3553 3.80176C12.8729 3.94863 13.3952 4.08485 13.9192 4.22153C16.38 4.86334 18.8793 5.51516 21.1028 7.32618L22.1267 8.16017C22.542 8.49845 22.7498 8.99918 22.75 9.5V16.5C22.75 16.9142 22.4142 17.25 22 17.25C21.5858 17.25 21.25 16.9142 21.25 16.5V11.5567L21.0871 11.6896C20.3166 12.3183 19.5128 12.8066 18.6888 13.2029C18.7282 13.294 18.75 13.3944 18.75 13.5V17.7939C18.75 18.9272 18.0548 19.9444 16.9989 20.3561L12.9989 21.9156C12.3565 22.166 11.6435 22.166 11.0011 21.9156L7.0011 20.3561C5.94522 19.9444 5.25 18.9272 5.25 17.7939V13.5C5.25 13.3918 5.27292 13.2889 5.31418 13.196C4.48383 12.7973 3.67373 12.3063 2.89724 11.6738L1.8733 10.8398C1.04264 10.1633 1.04221 8.83693 1.87215 8.15967L2.91292 7.31037C5.12037 5.50904 7.60193 4.86111 10.0445 4.22335C10.5697 4.08623 11.0931 3.94957 11.6116 3.80203ZM21.25 9.5006C21.25 9.41051 21.2136 9.35102 21.1794 9.3232L20.1555 8.48922C18 7 16.0794 6.34319 13.6399 5.70216C13.1035 5.56121 12.5519 5.41626 11.984 5.25559C11.4135 5.41742 10.8599 5.56306 10.3217 5.70465C7.9018 6.34128 5.79323 6.89601 3.86128 8.47253L2.8205 9.32184C2.78631 9.34974 2.74996 9.40931 2.75 9.4994C2.75004 9.58949 2.78643 9.64898 2.82058 9.6768L3.84453 10.5108C5.79285 12.0977 7.92065 12.6568 10.3601 13.2978C10.8965 13.4388 11.4481 13.5837 12.016 13.7444C12.5865 13.5826 13.14 13.437 13.6782 13.2954C16.0981 12.6588 18.2068 12.104 20.1387 10.5275L21.1795 9.67816C21.2137 9.65029 21.25 9.59054 21.25 9.5006ZM13.9555 14.7766C15.0553 14.4895 16.163 14.2003 17.25 13.8046V17.7939C17.25 18.3091 16.934 18.7714 16.454 18.9586L12.454 20.518C12.1621 20.6318 11.8379 20.6318 11.546 20.518L7.54596 18.9586C7.06601 18.7714 6.75 18.3091 6.75 17.7939V13.7961C7.84877 14.1963 8.96869 14.4884 10.0808 14.7785C10.6048 14.9151 11.1271 15.0514 11.6447 15.1982C11.8881 15.2673 12.145 15.2673 12.3884 15.198C12.9069 15.0504 13.4303 14.9138 13.9555 14.7766Z" fill="#004BFD"/>
</svg>
