<svg width="16" height="17" viewBox="0 0 16 17" fill="none" xmlns="http://www.w3.org/2000/svg">
<path opacity="0.4" d="M7.99998 15.1667C11.6819 15.1667 14.6666 12.1819 14.6666 8.5C14.6666 4.8181 11.6819 1.83333 7.99998 1.83333C4.31808 1.83333 1.33331 4.8181 1.33331 8.5C1.33331 12.1819 4.31808 15.1667 7.99998 15.1667Z" fill="#9E9BAE"/>
<path d="M10.4733 11.12C10.3867 11.12 10.3 11.1 10.22 11.0467L8.15334 9.81333C7.64001 9.50667 7.26001 8.83333 7.26001 8.24V5.50667C7.26001 5.23333 7.48668 5.00667 7.76001 5.00667C8.03334 5.00667 8.26001 5.23333 8.26001 5.50667V8.24C8.26001 8.48 8.46001 8.83333 8.66668 8.95333L10.7333 10.1867C10.9733 10.3267 11.0467 10.6333 10.9067 10.8733C10.8067 11.0333 10.64 11.12 10.4733 11.12Z" fill="#9E9BAE"/>
</svg>
