<svg width="17" height="17" viewBox="0 0 17 17" fill="none" xmlns="http://www.w3.org/2000/svg">
<path d="M11.8333 9.18335V11.1834C11.8333 13.85 10.7667 14.9167 8.10001 14.9167H5.56668C2.90001 14.9167 1.83334 13.85 1.83334 11.1834V8.65002C1.83334 5.98335 2.90001 4.91669 5.56668 4.91669H7.56668" stroke="white" stroke-linecap="round" stroke-linejoin="round"/>
<path d="M11.8333 9.18335H9.70001C8.10001 9.18335 7.56668 8.65002 7.56668 7.05002V4.91669L11.8333 9.18335Z" stroke="white" stroke-linecap="round" stroke-linejoin="round"/>
<path d="M8.23334 1.58331H10.9" stroke="white" stroke-linecap="round" stroke-linejoin="round"/>
<path d="M5.16666 3.58331C5.16666 2.47665 6.05999 1.58331 7.16666 1.58331H8.91332" stroke="white" stroke-linecap="round" stroke-linejoin="round"/>
<path d="M15.1667 5.58331V9.70998C15.1667 10.7433 14.3267 11.5833 13.2933 11.5833" stroke="white" stroke-linecap="round" stroke-linejoin="round"/>
<path d="M15.1667 5.58331H13.1667C11.6667 5.58331 11.1667 5.08331 11.1667 3.58331V1.58331L15.1667 5.58331Z" stroke="white" stroke-linecap="round" stroke-linejoin="round"/>
</svg>
