<svg width="24" height="25" viewBox="0 0 24 25" fill="none" xmlns="http://www.w3.org/2000/svg">
<path d="M12 6.69V10.02" stroke="white" stroke-width="1.5" stroke-miterlimit="10" stroke-linecap="round"/>
<path d="M12.02 2.25C8.33999 2.25 5.35999 5.23 5.35999 8.91V11.01C5.35999 11.69 5.07999 12.71 4.72999 13.29L3.45999 15.41C2.67999 16.72 3.21999 18.18 4.65999 18.66C9.43999 20.25 14.61 20.25 19.39 18.66C20.74 18.21 21.32 16.63 20.59 15.41L19.32 13.29C18.97 12.71 18.69 11.68 18.69 11.01V8.91C18.68 5.25 15.68 2.25 12.02 2.25Z" stroke="white" stroke-width="1.5" stroke-miterlimit="10" stroke-linecap="round"/>
<path d="M15.33 19.07C15.33 20.9 13.83 22.4 12 22.4C11.09 22.4 10.25 22.02 9.65001 21.42C9.05001 20.82 8.67001 19.98 8.67001 19.07" stroke="white" stroke-width="1.5" stroke-miterlimit="10"/>
</svg>
