<svg width="23" height="20" viewBox="0 0 23 20" fill="none" xmlns="http://www.w3.org/2000/svg">
<path fill-rule="evenodd" clip-rule="evenodd" d="M11.1116 0.802028C11.3551 0.732733 11.6119 0.73267 11.8553 0.801762C12.3729 0.94863 12.8952 1.08485 13.4192 1.22153C15.88 1.86334 18.3793 2.51516 20.6028 4.32618L21.6267 5.16017C22.042 5.49845 22.2498 5.99918 22.25 6.5V13.5C22.25 13.9142 21.9142 14.25 21.5 14.25C21.0858 14.25 20.75 13.9142 20.75 13.5V8.55668L20.5871 8.68963C19.8166 9.31835 19.0128 9.80655 18.1888 10.2029C18.2282 10.294 18.25 10.3944 18.25 10.5V14.7939C18.25 15.9272 17.5548 16.9444 16.4989 17.3561L12.4989 18.9156C11.8565 19.166 11.1435 19.166 10.5011 18.9156L6.5011 17.3561C5.44522 16.9444 4.75 15.9272 4.75 14.7939V10.5C4.75 10.3918 4.77292 10.2889 4.81418 10.196C3.98383 9.79733 3.17373 9.30626 2.39724 8.67382L1.3733 7.83983C0.542644 7.16327 0.542207 5.83693 1.37215 5.15967L2.41292 4.31037C4.62037 2.50904 7.10193 1.86111 9.54453 1.22335C10.0697 1.08623 10.5931 0.949573 11.1116 0.802028ZM20.75 6.5006C20.75 6.41051 20.7136 6.35102 20.6794 6.3232L19.6555 5.48922C17.5 4 15.5794 3.34319 13.1399 2.70216C12.6035 2.56121 12.0519 2.41626 11.484 2.25559C10.9135 2.41742 10.3599 2.56306 9.8217 2.70465C7.4018 3.34128 5.29323 3.89601 3.36128 5.47253L2.3205 6.32184C2.28631 6.34974 2.24996 6.40931 2.25 6.4994C2.25004 6.58949 2.28643 6.64898 2.32058 6.6768L3.34453 7.51079C5.29285 9.09767 7.42065 9.65681 9.86011 10.2978C10.3965 10.4388 10.9481 10.5837 11.516 10.7444C12.0865 10.5826 12.64 10.437 13.1782 10.2954C15.5981 9.65875 17.7068 9.10399 19.6387 7.52747L20.6795 6.67816C20.7137 6.65029 20.75 6.59054 20.75 6.5006ZM13.4555 11.7766C14.5553 11.4895 15.663 11.2003 16.75 10.8046V14.7939C16.75 15.3091 16.434 15.7714 15.954 15.9586L11.954 17.518C11.6621 17.6318 11.3379 17.6318 11.046 17.518L7.04596 15.9586C6.56601 15.7714 6.25 15.3091 6.25 14.7939V10.7961C7.34877 11.1963 8.46869 11.4884 9.58078 11.7785C10.1048 11.9151 10.6271 12.0514 11.1447 12.1982C11.3881 12.2673 11.645 12.2673 11.8884 12.198C12.4069 12.0504 12.9303 11.9138 13.4555 11.7766Z" fill="#BF612C"/>
</svg>
