<svg width="13" height="12" viewBox="0 0 13 12" fill="none" xmlns="http://www.w3.org/2000/svg">
<path d="M5.70294 0.545142C5.97313 -0.181714 7.02687 -0.181714 7.29706 0.545142L8.3508 3.32277C8.45887 3.63428 8.7831 3.84195 9.10732 3.86791L12.1875 3.97175C12.971 3.99771 13.2953 4.9582 12.6738 5.42546L10.2421 7.2426C9.97193 7.45027 9.86385 7.78774 9.94491 8.09925L10.8095 10.9548C11.0257 11.6816 10.1881 12.2787 9.51261 11.8633L6.97283 10.176C6.67562 9.99427 6.29736 9.99427 6.02717 10.176L3.48739 11.8374C2.83894 12.2527 1.97433 11.6816 2.19048 10.9288L3.05509 8.07329C3.16316 7.76178 3.02807 7.39836 2.75788 7.21664L0.32618 5.3995C-0.295255 4.93224 0.0289714 3.97175 0.81252 3.94579L3.89268 3.84195C4.24392 3.84195 4.54113 3.60832 4.6492 3.29681L5.70294 0.545142Z" fill="#004BFD"/>
</svg>
